<?xml version="1.0" encoding="UTF-8" standalone="no"?>
<!-- Created with Inkscape (http://www.inkscape.org/) -->

<svg
   width="8cm"
   height="5cm"
   viewBox="0 0 80 50"
   version="1.1"
   id="svg1"
   inkscape:version="1.3.2 (1:1.3.2+202311252150+091e20ef0f)"
   sodipodi:docname="avg_P_points.svg"
   xmlns:inkscape="http://www.inkscape.org/namespaces/inkscape"
   xmlns:sodipodi="http://sodipodi.sourceforge.net/DTD/sodipodi-0.dtd"
   xmlns="http://www.w3.org/2000/svg"
   xmlns:svg="http://www.w3.org/2000/svg">
  <sodipodi:namedview
     id="namedview1"
     pagecolor="#505050"
     bordercolor="#eeeeee"
     borderopacity="1"
     inkscape:showpageshadow="0"
     inkscape:pageopacity="0"
     inkscape:pagecheckerboard="0"
     inkscape:deskcolor="#505050"
     inkscape:document-units="mm"
     inkscape:zoom="4.3534752"
     inkscape:cx="63.512479"
     inkscape:cy="103.136"
     inkscape:window-width="1920"
     inkscape:window-height="1016"
     inkscape:window-x="0"
     inkscape:window-y="0"
     inkscape:window-maximized="1"
     inkscape:current-layer="layer1" />
  <defs
     id="defs1">
    <inkscape:path-effect
       effect="tiling"
       id="path-effect3"
       is_visible="true"
       lpeversion="1"
       unit="px"
       seed="1;1"
       lpesatellites=""
       num_rows="5"
       num_cols="6"
       gapx="19.8"
       gapy="21"
       offset="0"
       offset_type="false"
       scale="0"
       rotate="0"
       mirrorrowsx="false"
       mirrorrowsy="false"
       mirrorcolsx="false"
       mirrorcolsy="false"
       mirrortrans="false"
       shrink_interp="false"
       split_items="false"
       link_styles="false"
       interpolate_scalex="false"
       interpolate_scaley="true"
       interpolate_rotatex="false"
       interpolate_rotatey="true"
       random_scale="false"
       random_rotate="false"
       random_gap_y="false"
       random_gap_x="false"
       transformorigin="" />
    <inkscape:path-effect
       effect="tiling"
       id="path-effect2"
       is_visible="true"
       lpeversion="1"
       unit="px"
       seed="1;1"
       lpesatellites=""
       num_rows="6"
       num_cols="6"
       gapx="20.5"
       gapy="21.5"
       offset="0"
       offset_type="false"
       scale="0"
       rotate="0"
       mirrorrowsx="false"
       mirrorrowsy="false"
       mirrorcolsx="false"
       mirrorcolsy="false"
       mirrortrans="false"
       shrink_interp="false"
       split_items="false"
       link_styles="false"
       interpolate_scalex="false"
       interpolate_scaley="true"
       interpolate_rotatex="false"
       interpolate_rotatey="true"
       random_scale="false"
       random_rotate="false"
       random_gap_y="false"
       random_gap_x="false"
       transformorigin="" />
    <inkscape:path-effect
       effect="construct_grid"
       id="path-effect1"
       is_visible="true"
       lpeversion="1"
       nr_x="5"
       nr_y="5" />
    <inkscape:path-effect
       effect="tiling"
       id="path-effect3-7"
       is_visible="true"
       lpeversion="1"
       unit="px"
       seed="1;1"
       lpesatellites=""
       num_rows="6"
       num_cols="5"
       gapx="19.8"
       gapy="20.7"
       offset="0"
       offset_type="false"
       scale="0"
       rotate="0"
       mirrorrowsx="false"
       mirrorrowsy="false"
       mirrorcolsx="false"
       mirrorcolsy="false"
       mirrortrans="false"
       shrink_interp="false"
       split_items="false"
       link_styles="false"
       interpolate_scalex="false"
       interpolate_scaley="true"
       interpolate_rotatex="false"
       interpolate_rotatey="true"
       random_scale="false"
       random_rotate="false"
       random_gap_y="false"
       random_gap_x="false"
       transformorigin="" />
  </defs>
  <g
     inkscape:label="Layer 1"
     inkscape:groupmode="layer"
     id="layer1">
    <path
       style="fill:none;fill-opacity:0.243958;stroke:#000000;stroke-width:0.2"
       id="rect1"
       width="7"
       height="7"
       x="6.2807579"
       y="6.2601619"
       inkscape:path-effect="#path-effect1"
       sodipodi:type="rect"
       d="m 13.280758,6.2601619 h -35 m 35,7.0000001 h -35 m 35,7 h -35 m 35,7 h -35 m 35,7 h -35 m 35,7 h -35 m 35,-35.0000001 V 41.260162 M 6.2807579,6.2601619 V 41.260162 m -7,-35.0000001 V 41.260162 m -7,-35.0000001 V 41.260162 M -14.719242,6.2601619 V 41.260162 m -7,-35.0000001 V 41.260162"
       transform="matrix(0.86229813,0,0,0.90156549,25.447912,2.4559822)" />
    <path
       style="fill:#000000;fill-opacity:1;stroke:#000000;stroke-width:0.2"
       id="path2"
       inkscape:path-effect="#path-effect2"
       sodipodi:type="arc"
       sodipodi:cx="6.71945"
       sodipodi:cy="8.0999279"
       sodipodi:rx="0.30000001"
       sodipodi:ry="0.30000001"
       d="m 7.01945,8.0999279 c 0,0.1656854 -0.1343146,0.3 -0.3,0.3 -0.1656854,0 -0.3,-0.1343146 -0.3,-0.3 0,-0.1656854 0.1343146,-0.3 0.3,-0.3 0.1656854,0 0.3,0.1343146 0.3,0.3 z m 6.023958,0 c 0,0.1656854 -0.134314,0.3 -0.3,0.3 -0.165685,0 -0.3,-0.1343146 -0.3,-0.3 0,-0.1656854 0.134315,-0.3 0.3,-0.3 0.165686,0 0.3,0.1343146 0.3,0.3 z m 6.023959,0 c 0,0.1656854 -0.134315,0.3 -0.3,0.3 -0.165686,0 -0.3,-0.1343146 -0.3,-0.3 0,-0.1656854 0.134314,-0.3 0.3,-0.3 0.165685,0 0.3,0.1343146 0.3,0.3 z m 6.023958,0 c 0,0.1656854 -0.134315,0.3 -0.3,0.3 -0.165685,0 -0.3,-0.1343146 -0.3,-0.3 0,-0.1656854 0.134315,-0.3 0.3,-0.3 0.165685,0 0.3,0.1343146 0.3,0.3 z m 6.023958,0 c 0,0.1656854 -0.134314,0.3 -0.3,0.3 -0.165685,0 -0.3,-0.1343146 -0.3,-0.3 0,-0.1656854 0.134315,-0.3 0.3,-0.3 0.165686,0 0.3,0.1343146 0.3,0.3 z m 6.023959,0 c 0,0.1656854 -0.134315,0.3 -0.3,0.3 -0.165686,0 -0.3,-0.1343146 -0.3,-0.3 0,-0.1656854 0.134314,-0.3 0.3,-0.3 0.165685,0 0.3,0.1343146 0.3,0.3 z M 7.01945,14.38847 c 0,0.165685 -0.1343146,0.3 -0.3,0.3 -0.1656854,0 -0.3,-0.134315 -0.3,-0.3 0,-0.165686 0.1343146,-0.3 0.3,-0.3 0.1656854,0 0.3,0.134314 0.3,0.3 z m 6.023958,0 c 0,0.165685 -0.134314,0.3 -0.3,0.3 -0.165685,0 -0.3,-0.134315 -0.3,-0.3 0,-0.165686 0.134315,-0.3 0.3,-0.3 0.165686,0 0.3,0.134314 0.3,0.3 z m 6.023959,0 c 0,0.165685 -0.134315,0.3 -0.3,0.3 -0.165686,0 -0.3,-0.134315 -0.3,-0.3 0,-0.165686 0.134314,-0.3 0.3,-0.3 0.165685,0 0.3,0.134314 0.3,0.3 z m 6.023958,0 c 0,0.165685 -0.134315,0.3 -0.3,0.3 -0.165685,0 -0.3,-0.134315 -0.3,-0.3 0,-0.165686 0.134315,-0.3 0.3,-0.3 0.165685,0 0.3,0.134314 0.3,0.3 z m 6.023958,0 c 0,0.165685 -0.134314,0.3 -0.3,0.3 -0.165685,0 -0.3,-0.134315 -0.3,-0.3 0,-0.165686 0.134315,-0.3 0.3,-0.3 0.165686,0 0.3,0.134314 0.3,0.3 z m 6.023959,0 c 0,0.165685 -0.134315,0.3 -0.3,0.3 -0.165686,0 -0.3,-0.134315 -0.3,-0.3 0,-0.165686 0.134314,-0.3 0.3,-0.3 0.165685,0 0.3,0.134314 0.3,0.3 z M 7.01945,20.677011 c 0,0.165686 -0.1343146,0.3 -0.3,0.3 -0.1656854,0 -0.3,-0.134314 -0.3,-0.3 0,-0.165685 0.1343146,-0.3 0.3,-0.3 0.1656854,0 0.3,0.134315 0.3,0.3 z m 6.023958,0 c 0,0.165686 -0.134314,0.3 -0.3,0.3 -0.165685,0 -0.3,-0.134314 -0.3,-0.3 0,-0.165685 0.134315,-0.3 0.3,-0.3 0.165686,0 0.3,0.134315 0.3,0.3 z m 6.023959,0 c 0,0.165686 -0.134315,0.3 -0.3,0.3 -0.165686,0 -0.3,-0.134314 -0.3,-0.3 0,-0.165685 0.134314,-0.3 0.3,-0.3 0.165685,0 0.3,0.134315 0.3,0.3 z m 6.023958,0 c 0,0.165686 -0.134315,0.3 -0.3,0.3 -0.165685,0 -0.3,-0.134314 -0.3,-0.3 0,-0.165685 0.134315,-0.3 0.3,-0.3 0.165685,0 0.3,0.134315 0.3,0.3 z m 6.023958,0 c 0,0.165686 -0.134314,0.3 -0.3,0.3 -0.165685,0 -0.3,-0.134314 -0.3,-0.3 0,-0.165685 0.134315,-0.3 0.3,-0.3 0.165686,0 0.3,0.134315 0.3,0.3 z m 6.023959,0 c 0,0.165686 -0.134315,0.3 -0.3,0.3 -0.165686,0 -0.3,-0.134314 -0.3,-0.3 0,-0.165685 0.134314,-0.3 0.3,-0.3 0.165685,0 0.3,0.134315 0.3,0.3 z M 7.01945,26.965553 c 0,0.165685 -0.1343146,0.3 -0.3,0.3 -0.1656854,0 -0.3,-0.134315 -0.3,-0.3 0,-0.165685 0.1343146,-0.3 0.3,-0.3 0.1656854,0 0.3,0.134315 0.3,0.3 z m 6.023958,0 c 0,0.165685 -0.134314,0.3 -0.3,0.3 -0.165685,0 -0.3,-0.134315 -0.3,-0.3 0,-0.165685 0.134315,-0.3 0.3,-0.3 0.165686,0 0.3,0.134315 0.3,0.3 z m 6.023959,0 c 0,0.165685 -0.134315,0.3 -0.3,0.3 -0.165686,0 -0.3,-0.134315 -0.3,-0.3 0,-0.165685 0.134314,-0.3 0.3,-0.3 0.165685,0 0.3,0.134315 0.3,0.3 z m 6.023958,0 c 0,0.165685 -0.134315,0.3 -0.3,0.3 -0.165685,0 -0.3,-0.134315 -0.3,-0.3 0,-0.165685 0.134315,-0.3 0.3,-0.3 0.165685,0 0.3,0.134315 0.3,0.3 z m 6.023958,0 c 0,0.165685 -0.134314,0.3 -0.3,0.3 -0.165685,0 -0.3,-0.134315 -0.3,-0.3 0,-0.165685 0.134315,-0.3 0.3,-0.3 0.165686,0 0.3,0.134315 0.3,0.3 z m 6.023959,0 c 0,0.165685 -0.134315,0.3 -0.3,0.3 -0.165686,0 -0.3,-0.134315 -0.3,-0.3 0,-0.165685 0.134314,-0.3 0.3,-0.3 0.165685,0 0.3,0.134315 0.3,0.3 z M 7.01945,33.254095 c 0,0.165685 -0.1343146,0.3 -0.3,0.3 -0.1656854,0 -0.3,-0.134315 -0.3,-0.3 0,-0.165686 0.1343146,-0.3 0.3,-0.3 0.1656854,0 0.3,0.134314 0.3,0.3 z m 6.023958,0 c 0,0.165685 -0.134314,0.3 -0.3,0.3 -0.165685,0 -0.3,-0.134315 -0.3,-0.3 0,-0.165686 0.134315,-0.3 0.3,-0.3 0.165686,0 0.3,0.134314 0.3,0.3 z m 6.023959,0 c 0,0.165685 -0.134315,0.3 -0.3,0.3 -0.165686,0 -0.3,-0.134315 -0.3,-0.3 0,-0.165686 0.134314,-0.3 0.3,-0.3 0.165685,0 0.3,0.134314 0.3,0.3 z m 6.023958,0 c 0,0.165685 -0.134315,0.3 -0.3,0.3 -0.165685,0 -0.3,-0.134315 -0.3,-0.3 0,-0.165686 0.134315,-0.3 0.3,-0.3 0.165685,0 0.3,0.134314 0.3,0.3 z m 6.023958,0 c 0,0.165685 -0.134314,0.3 -0.3,0.3 -0.165685,0 -0.3,-0.134315 -0.3,-0.3 0,-0.165686 0.134315,-0.3 0.3,-0.3 0.165686,0 0.3,0.134314 0.3,0.3 z m 6.023959,0 c 0,0.165685 -0.134315,0.3 -0.3,0.3 -0.165686,0 -0.3,-0.134315 -0.3,-0.3 0,-0.165686 0.134314,-0.3 0.3,-0.3 0.165685,0 0.3,0.134314 0.3,0.3 z M 7.01945,39.542636 c 0,0.165686 -0.1343146,0.3 -0.3,0.3 -0.1656854,0 -0.3,-0.134314 -0.3,-0.3 0,-0.165685 0.1343146,-0.3 0.3,-0.3 0.1656854,0 0.3,0.134315 0.3,0.3 z m 6.023958,0 c 0,0.165686 -0.134314,0.3 -0.3,0.3 -0.165685,0 -0.3,-0.134314 -0.3,-0.3 0,-0.165685 0.134315,-0.3 0.3,-0.3 0.165686,0 0.3,0.134315 0.3,0.3 z m 6.023959,0 c 0,0.165686 -0.134315,0.3 -0.3,0.3 -0.165686,0 -0.3,-0.134314 -0.3,-0.3 0,-0.165685 0.134314,-0.3 0.3,-0.3 0.165685,0 0.3,0.134315 0.3,0.3 z m 6.023958,0 c 0,0.165686 -0.134315,0.3 -0.3,0.3 -0.165685,0 -0.3,-0.134314 -0.3,-0.3 0,-0.165685 0.134315,-0.3 0.3,-0.3 0.165685,0 0.3,0.134315 0.3,0.3 z m 6.023958,0 c 0,0.165686 -0.134314,0.3 -0.3,0.3 -0.165685,0 -0.3,-0.134314 -0.3,-0.3 0,-0.165685 0.134315,-0.3 0.3,-0.3 0.165686,0 0.3,0.134315 0.3,0.3 z m 6.023959,0 c 0,0.165686 -0.134315,0.3 -0.3,0.3 -0.165686,0 -0.3,-0.134314 -0.3,-0.3 0,-0.165685 0.134314,-0.3 0.3,-0.3 0.165685,0 0.3,0.134315 0.3,0.3 z" />
    <path
       style="fill:#ff0000;fill-opacity:1;stroke:#000000;stroke-width:0.2"
       id="path3"
       inkscape:path-effect="#path-effect3"
       sodipodi:type="arc"
       sodipodi:cx="6.71945"
       sodipodi:cy="11.274925"
       sodipodi:rx="0.40000001"
       sodipodi:ry="0.40000001"
       d="m 7.11945,11.274925 c 0,0.220914 -0.1790861,0.4 -0.4,0.4 -0.2209139,0 -0.4,-0.179086 -0.4,-0.4 0,-0.220914 0.1790861,-0.4 0.4,-0.4 0.2209139,0 0.4,0.179086 0.4,0.4 z m 6.03875,0 c 0,0.220914 -0.179086,0.4 -0.4,0.4 -0.220914,0 -0.4,-0.179086 -0.4,-0.4 0,-0.220914 0.179086,-0.4 0.4,-0.4 0.220914,0 0.4,0.179086 0.4,0.4 z m 6.03875,0 c 0,0.220914 -0.179086,0.4 -0.4,0.4 -0.220914,0 -0.4,-0.179086 -0.4,-0.4 0,-0.220914 0.179086,-0.4 0.4,-0.4 0.220914,0 0.4,0.179086 0.4,0.4 z m 6.03875,0 c 0,0.220914 -0.179086,0.4 -0.4,0.4 -0.220914,0 -0.4,-0.179086 -0.4,-0.4 0,-0.220914 0.179086,-0.4 0.4,-0.4 0.220914,0 0.4,0.179086 0.4,0.4 z m 6.03875,0 c 0,0.220914 -0.179086,0.4 -0.4,0.4 -0.220914,0 -0.4,-0.179086 -0.4,-0.4 0,-0.220914 0.179086,-0.4 0.4,-0.4 0.220914,0 0.4,0.179086 0.4,0.4 z m 6.03875,0 c 0,0.220914 -0.179086,0.4 -0.4,0.4 -0.220914,0 -0.4,-0.179086 -0.4,-0.4 0,-0.220914 0.179086,-0.4 0.4,-0.4 0.220914,0 0.4,0.179086 0.4,0.4 z m -30.19375,6.35625 c 0,0.220914 -0.1790861,0.4 -0.4,0.4 -0.2209139,0 -0.4,-0.179086 -0.4,-0.4 0,-0.220914 0.1790861,-0.4 0.4,-0.4 0.2209139,0 0.4,0.179086 0.4,0.4 z m 6.03875,0 c 0,0.220914 -0.179086,0.4 -0.4,0.4 -0.220914,0 -0.4,-0.179086 -0.4,-0.4 0,-0.220914 0.179086,-0.4 0.4,-0.4 0.220914,0 0.4,0.179086 0.4,0.4 z m 6.03875,0 c 0,0.220914 -0.179086,0.4 -0.4,0.4 -0.220914,0 -0.4,-0.179086 -0.4,-0.4 0,-0.220914 0.179086,-0.4 0.4,-0.4 0.220914,0 0.4,0.179086 0.4,0.4 z m 6.03875,0 c 0,0.220914 -0.179086,0.4 -0.4,0.4 -0.220914,0 -0.4,-0.179086 -0.4,-0.4 0,-0.220914 0.179086,-0.4 0.4,-0.4 0.220914,0 0.4,0.179086 0.4,0.4 z m 6.03875,0 c 0,0.220914 -0.179086,0.4 -0.4,0.4 -0.220914,0 -0.4,-0.179086 -0.4,-0.4 0,-0.220914 0.179086,-0.4 0.4,-0.4 0.220914,0 0.4,0.179086 0.4,0.4 z m 6.03875,0 c 0,0.220914 -0.179086,0.4 -0.4,0.4 -0.220914,0 -0.4,-0.179086 -0.4,-0.4 0,-0.220914 0.179086,-0.4 0.4,-0.4 0.220914,0 0.4,0.179086 0.4,0.4 z m -30.19375,6.35625 c 0,0.220914 -0.1790861,0.4 -0.4,0.4 -0.2209139,0 -0.4,-0.179086 -0.4,-0.4 0,-0.220914 0.1790861,-0.4 0.4,-0.4 0.2209139,0 0.4,0.179086 0.4,0.4 z m 6.03875,0 c 0,0.220914 -0.179086,0.4 -0.4,0.4 -0.220914,0 -0.4,-0.179086 -0.4,-0.4 0,-0.220914 0.179086,-0.4 0.4,-0.4 0.220914,0 0.4,0.179086 0.4,0.4 z m 6.03875,0 c 0,0.220914 -0.179086,0.4 -0.4,0.4 -0.220914,0 -0.4,-0.179086 -0.4,-0.4 0,-0.220914 0.179086,-0.4 0.4,-0.4 0.220914,0 0.4,0.179086 0.4,0.4 z m 6.03875,0 c 0,0.220914 -0.179086,0.4 -0.4,0.4 -0.220914,0 -0.4,-0.179086 -0.4,-0.4 0,-0.220914 0.179086,-0.4 0.4,-0.4 0.220914,0 0.4,0.179086 0.4,0.4 z m 6.03875,0 c 0,0.220914 -0.179086,0.4 -0.4,0.4 -0.220914,0 -0.4,-0.179086 -0.4,-0.4 0,-0.220914 0.179086,-0.4 0.4,-0.4 0.220914,0 0.4,0.179086 0.4,0.4 z m 6.03875,0 c 0,0.220914 -0.179086,0.4 -0.4,0.4 -0.220914,0 -0.4,-0.179086 -0.4,-0.4 0,-0.220914 0.179086,-0.4 0.4,-0.4 0.220914,0 0.4,0.179086 0.4,0.4 z m -30.19375,6.35625 c 0,0.220914 -0.1790861,0.4 -0.4,0.4 -0.2209139,0 -0.4,-0.179086 -0.4,-0.4 0,-0.220914 0.1790861,-0.4 0.4,-0.4 0.2209139,0 0.4,0.179086 0.4,0.4 z m 6.03875,0 c 0,0.220914 -0.179086,0.4 -0.4,0.4 -0.220914,0 -0.4,-0.179086 -0.4,-0.4 0,-0.220914 0.179086,-0.4 0.4,-0.4 0.220914,0 0.4,0.179086 0.4,0.4 z m 6.03875,0 c 0,0.220914 -0.179086,0.4 -0.4,0.4 -0.220914,0 -0.4,-0.179086 -0.4,-0.4 0,-0.220914 0.179086,-0.4 0.4,-0.4 0.220914,0 0.4,0.179086 0.4,0.4 z m 6.03875,0 c 0,0.220914 -0.179086,0.4 -0.4,0.4 -0.220914,0 -0.4,-0.179086 -0.4,-0.4 0,-0.220914 0.179086,-0.4 0.4,-0.4 0.220914,0 0.4,0.179086 0.4,0.4 z m 6.03875,0 c 0,0.220914 -0.179086,0.4 -0.4,0.4 -0.220914,0 -0.4,-0.179086 -0.4,-0.4 0,-0.220914 0.179086,-0.4 0.4,-0.4 0.220914,0 0.4,0.179086 0.4,0.4 z m 6.03875,0 c 0,0.220914 -0.179086,0.4 -0.4,0.4 -0.220914,0 -0.4,-0.179086 -0.4,-0.4 0,-0.220914 0.179086,-0.4 0.4,-0.4 0.220914,0 0.4,0.179086 0.4,0.4 z m -30.19375,6.35625 c 0,0.220914 -0.1790861,0.4 -0.4,0.4 -0.2209139,0 -0.4,-0.179086 -0.4,-0.4 0,-0.220914 0.1790861,-0.4 0.4,-0.4 0.2209139,0 0.4,0.179086 0.4,0.4 z m 6.03875,0 c 0,0.220914 -0.179086,0.4 -0.4,0.4 -0.220914,0 -0.4,-0.179086 -0.4,-0.4 0,-0.220914 0.179086,-0.4 0.4,-0.4 0.220914,0 0.4,0.179086 0.4,0.4 z m 6.03875,0 c 0,0.220914 -0.179086,0.4 -0.4,0.4 -0.220914,0 -0.4,-0.179086 -0.4,-0.4 0,-0.220914 0.179086,-0.4 0.4,-0.4 0.220914,0 0.4,0.179086 0.4,0.4 z m 6.03875,0 c 0,0.220914 -0.179086,0.4 -0.4,0.4 -0.220914,0 -0.4,-0.179086 -0.4,-0.4 0,-0.220914 0.179086,-0.4 0.4,-0.4 0.220914,0 0.4,0.179086 0.4,0.4 z m 6.03875,0 c 0,0.220914 -0.179086,0.4 -0.4,0.4 -0.220914,0 -0.4,-0.179086 -0.4,-0.4 0,-0.220914 0.179086,-0.4 0.4,-0.4 0.220914,0 0.4,0.179086 0.4,0.4 z m 6.03875,0 c 0,0.220914 -0.179086,0.4 -0.4,0.4 -0.220914,0 -0.4,-0.179086 -0.4,-0.4 0,-0.220914 0.179086,-0.4 0.4,-0.4 0.220914,0 0.4,0.179086 0.4,0.4 z" />
    <path
       style="fill:#0000ff;fill-opacity:1;stroke:#000000;stroke-width:0.2"
       id="path3-3"
       inkscape:path-effect="#path-effect3-7"
       sodipodi:type="arc"
       sodipodi:cx="6.71945"
       sodipodi:cy="11.274925"
       sodipodi:rx="0.40000001"
       sodipodi:ry="0.40000001"
       d="m 7.11945,11.274925 c 0,0.220914 -0.1790861,0.4 -0.4,0.4 -0.2209139,0 -0.4,-0.179086 -0.4,-0.4 0,-0.220914 0.1790861,-0.4 0.4,-0.4 0.2209139,0 0.4,0.179086 0.4,0.4 z m 6.03875,0 c 0,0.220914 -0.179086,0.4 -0.4,0.4 -0.220914,0 -0.4,-0.179086 -0.4,-0.4 0,-0.220914 0.179086,-0.4 0.4,-0.4 0.220914,0 0.4,0.179086 0.4,0.4 z m 6.03875,0 c 0,0.220914 -0.179086,0.4 -0.4,0.4 -0.220914,0 -0.4,-0.179086 -0.4,-0.4 0,-0.220914 0.179086,-0.4 0.4,-0.4 0.220914,0 0.4,0.179086 0.4,0.4 z m 6.03875,0 c 0,0.220914 -0.179086,0.4 -0.4,0.4 -0.220914,0 -0.4,-0.179086 -0.4,-0.4 0,-0.220914 0.179086,-0.4 0.4,-0.4 0.220914,0 0.4,0.179086 0.4,0.4 z m 6.03875,0 c 0,0.220914 -0.179086,0.4 -0.4,0.4 -0.220914,0 -0.4,-0.179086 -0.4,-0.4 0,-0.220914 0.179086,-0.4 0.4,-0.4 0.220914,0 0.4,0.179086 0.4,0.4 z M 7.11945,17.5518 c 0,0.220914 -0.1790861,0.4 -0.4,0.4 -0.2209139,0 -0.4,-0.179086 -0.4,-0.4 0,-0.220914 0.1790861,-0.4 0.4,-0.4 0.2209139,0 0.4,0.179086 0.4,0.4 z m 6.03875,0 c 0,0.220914 -0.179086,0.4 -0.4,0.4 -0.220914,0 -0.4,-0.179086 -0.4,-0.4 0,-0.220914 0.179086,-0.4 0.4,-0.4 0.220914,0 0.4,0.179086 0.4,0.4 z m 6.03875,0 c 0,0.220914 -0.179086,0.4 -0.4,0.4 -0.220914,0 -0.4,-0.179086 -0.4,-0.4 0,-0.220914 0.179086,-0.4 0.4,-0.4 0.220914,0 0.4,0.179086 0.4,0.4 z m 6.03875,0 c 0,0.220914 -0.179086,0.4 -0.4,0.4 -0.220914,0 -0.4,-0.179086 -0.4,-0.4 0,-0.220914 0.179086,-0.4 0.4,-0.4 0.220914,0 0.4,0.179086 0.4,0.4 z m 6.03875,0 c 0,0.220914 -0.179086,0.4 -0.4,0.4 -0.220914,0 -0.4,-0.179086 -0.4,-0.4 0,-0.220914 0.179086,-0.4 0.4,-0.4 0.220914,0 0.4,0.179086 0.4,0.4 z m -24.155,6.276875 c 0,0.220914 -0.1790861,0.4 -0.4,0.4 -0.2209139,0 -0.4,-0.179086 -0.4,-0.4 0,-0.220914 0.1790861,-0.4 0.4,-0.4 0.2209139,0 0.4,0.179086 0.4,0.4 z m 6.03875,0 c 0,0.220914 -0.179086,0.4 -0.4,0.4 -0.220914,0 -0.4,-0.179086 -0.4,-0.4 0,-0.220914 0.179086,-0.4 0.4,-0.4 0.220914,0 0.4,0.179086 0.4,0.4 z m 6.03875,0 c 0,0.220914 -0.179086,0.4 -0.4,0.4 -0.220914,0 -0.4,-0.179086 -0.4,-0.4 0,-0.220914 0.179086,-0.4 0.4,-0.4 0.220914,0 0.4,0.179086 0.4,0.4 z m 6.03875,0 c 0,0.220914 -0.179086,0.4 -0.4,0.4 -0.220914,0 -0.4,-0.179086 -0.4,-0.4 0,-0.220914 0.179086,-0.4 0.4,-0.4 0.220914,0 0.4,0.179086 0.4,0.4 z m 6.03875,0 c 0,0.220914 -0.179086,0.4 -0.4,0.4 -0.220914,0 -0.4,-0.179086 -0.4,-0.4 0,-0.220914 0.179086,-0.4 0.4,-0.4 0.220914,0 0.4,0.179086 0.4,0.4 z m -24.155,6.276875 c 0,0.220914 -0.1790861,0.4 -0.4,0.4 -0.2209139,0 -0.4,-0.179086 -0.4,-0.4 0,-0.220914 0.1790861,-0.4 0.4,-0.4 0.2209139,0 0.4,0.179086 0.4,0.4 z m 6.03875,0 c 0,0.220914 -0.179086,0.4 -0.4,0.4 -0.220914,0 -0.4,-0.179086 -0.4,-0.4 0,-0.220914 0.179086,-0.4 0.4,-0.4 0.220914,0 0.4,0.179086 0.4,0.4 z m 6.03875,0 c 0,0.220914 -0.179086,0.4 -0.4,0.4 -0.220914,0 -0.4,-0.179086 -0.4,-0.4 0,-0.220914 0.179086,-0.4 0.4,-0.4 0.220914,0 0.4,0.179086 0.4,0.4 z m 6.03875,0 c 0,0.220914 -0.179086,0.4 -0.4,0.4 -0.220914,0 -0.4,-0.179086 -0.4,-0.4 0,-0.220914 0.179086,-0.4 0.4,-0.4 0.220914,0 0.4,0.179086 0.4,0.4 z m 6.03875,0 c 0,0.220914 -0.179086,0.4 -0.4,0.4 -0.220914,0 -0.4,-0.179086 -0.4,-0.4 0,-0.220914 0.179086,-0.4 0.4,-0.4 0.220914,0 0.4,0.179086 0.4,0.4 z m -24.155,6.276875 c 0,0.220914 -0.1790861,0.4 -0.4,0.4 -0.2209139,0 -0.4,-0.179086 -0.4,-0.4 0,-0.220914 0.1790861,-0.4 0.4,-0.4 0.2209139,0 0.4,0.179086 0.4,0.4 z m 6.03875,0 c 0,0.220914 -0.179086,0.4 -0.4,0.4 -0.220914,0 -0.4,-0.179086 -0.4,-0.4 0,-0.220914 0.179086,-0.4 0.4,-0.4 0.220914,0 0.4,0.179086 0.4,0.4 z m 6.03875,0 c 0,0.220914 -0.179086,0.4 -0.4,0.4 -0.220914,0 -0.4,-0.179086 -0.4,-0.4 0,-0.220914 0.179086,-0.4 0.4,-0.4 0.220914,0 0.4,0.179086 0.4,0.4 z m 6.03875,0 c 0,0.220914 -0.179086,0.4 -0.4,0.4 -0.220914,0 -0.4,-0.179086 -0.4,-0.4 0,-0.220914 0.179086,-0.4 0.4,-0.4 0.220914,0 0.4,0.179086 0.4,0.4 z m 6.03875,0 c 0,0.220914 -0.179086,0.4 -0.4,0.4 -0.220914,0 -0.4,-0.179086 -0.4,-0.4 0,-0.220914 0.179086,-0.4 0.4,-0.4 0.220914,0 0.4,0.179086 0.4,0.4 z M 7.11945,42.6593 c 0,0.220914 -0.1790861,0.4 -0.4,0.4 -0.2209139,0 -0.4,-0.179086 -0.4,-0.4 0,-0.220914 0.1790861,-0.4 0.4,-0.4 0.2209139,0 0.4,0.179086 0.4,0.4 z m 6.03875,0 c 0,0.220914 -0.179086,0.4 -0.4,0.4 -0.220914,0 -0.4,-0.179086 -0.4,-0.4 0,-0.220914 0.179086,-0.4 0.4,-0.4 0.220914,0 0.4,0.179086 0.4,0.4 z m 6.03875,0 c 0,0.220914 -0.179086,0.4 -0.4,0.4 -0.220914,0 -0.4,-0.179086 -0.4,-0.4 0,-0.220914 0.179086,-0.4 0.4,-0.4 0.220914,0 0.4,0.179086 0.4,0.4 z m 6.03875,0 c 0,0.220914 -0.179086,0.4 -0.4,0.4 -0.220914,0 -0.4,-0.179086 -0.4,-0.4 0,-0.220914 0.179086,-0.4 0.4,-0.4 0.220914,0 0.4,0.179086 0.4,0.4 z m 6.03875,0 c 0,0.220914 -0.179086,0.4 -0.4,0.4 -0.220914,0 -0.4,-0.179086 -0.4,-0.4 0,-0.220914 0.179086,-0.4 0.4,-0.4 0.220914,0 0.4,0.179086 0.4,0.4 z"
       transform="translate(3.0113859,-3.0125982)" />
  </g>
</svg>
